<svg class="injected-svg" id="svg-e3406d47-f0db-41e5-9af4-29edd4d51651" height="60%" width="100%" viewBox="185 132 172 130" xmlns="http://www.w3.org/2000/svg"><g xmlns="http://www.w3.org/2000/svg" fill="#d68048" id="icon-svg">
  <path transform="translate(191, 117) scale(0.8,0.8)" d="M 19.994 20.915 C 13.051 23.081, 6.038 29.081, 2.360 36 C 0.668 39.184, 0.500 42.160, 0.500 69 C 0.500 97.352, 0.584 98.656, 2.665 102.500 C 6.360 109.325, 15.816 117, 20.531 117 C 21.766 117, 20.423 120.294, 14.987 130.593 L 7.813 144.187 30.656 132.427 C 43.220 125.959, 54.388 120.067, 55.473 119.334 C 56.597 118.573, 60.143 118, 63.723 118 L 70 118 70 105.182 C 70 88.236, 71.398 83.472, 78.435 76.435 C 85.988 68.882, 89.630 68, 113.275 68 L 132.188 68 131.824 53.750 C 131.534 42.344, 131.094 38.801, 129.620 36 C 127.066 31.144, 121.259 25.241, 116.500 22.665 C 112.583 20.545, 111.570 20.496, 67.500 20.316 C 42.750 20.215, 21.372 20.485, 19.994 20.915 M 91.994 70.914 C 85.049 73.083, 78.037 79.081, 74.360 86 C 72.705 89.113, 72.500 91.985, 72.500 112 C 72.500 137.358, 72.819 138.693, 80.665 146.140 C 88.149 153.243, 89.084 153.464, 113.123 153.819 L 134.746 154.137 158.123 167.974 C 170.980 175.584, 181.601 181.715, 181.724 181.599 C 181.847 181.482, 179.997 176.237, 177.613 169.943 C 171.117 152.792, 171.227 154.378, 176.480 153.658 C 182.418 152.844, 187.653 150.061, 192.140 145.335 C 199.361 137.727, 199.500 137.096, 199.500 112 C 199.500 91.985, 199.295 89.113, 197.640 86 C 195.048 81.124, 189.243 75.233, 184.500 72.665 C 180.591 70.549, 179.518 70.496, 137.500 70.316 C 113.850 70.214, 93.372 70.483, 91.994 70.914" stroke="none" fill-rule="evenodd"></path>
</g></svg>
