<svg class="injected-svg" id="svg-e3406d47-f0db-41e5-9af4-29edd4d51651" height="100%" width="100%" viewBox="165 202 210 200" xmlns="http://www.w3.org/2000/svg"><g xmlns="http://www.w3.org/2000/svg" fill="#d68048" id="icon-svg">
</g><path xmlns="http://www.w3.org/2000/svg" id="SvgjsPath58278" d="M25.20 1.10Q25.20 0.10 22.20 0.10L22.20 0.10Q21.70-18.40 21.70-26.70L21.70-26.70L21.40-27.10L21.80-28Q21.80-29.80 21.40-31.70L21.40-31.70L19.90-32.10Q19-31.80 17.90-31.80L17.90-31.80Q17.10-31.80 14.60-32.30L14.60-32.30Q12.90-32.80 11.50-32.80L11.50-32.80L10.40-32.40Q10.40-28.90 10.30-26.10L10.30-26.10Q10.20-23.30 10.20-19.80L10.20-19.80L10.40-19.40Q10.40-16.60 10.70-11L10.70-11Q11-5.50 11-2.70L11-2.70Q11-1.60 10.60-0.85Q10.20-0.10 9.40-0.10L9.40-0.10Q7.20-0.10 7.20-6.10L7.20-6.10Q7.20-11.20 7.30-15.30L7.30-15.30L7.40-24.40Q7.40-33.50 7.10-34.20L7.10-34.20Q7.60-35.20 7.60-40.80L7.60-40.80Q7.60-45.60 7.20-52.50L7.20-52.50L7-56.40L6.80-64.20Q6.80-64.90 7.30-65.50Q7.80-66.10 8.50-66.10L8.50-66.10Q10.50-66.10 10.50-60.30L10.50-60.30Q10.50-53.50 10.40-48L10.40-48Q10.20-42.50 10.20-35.90L10.20-35.90Q10.20-34.70 17.80-34.70L17.80-34.70L18.20-34.70Q20.10-34.70 20.95-35.45Q21.80-36.20 21.80-38L21.80-38Q21.80-43.30 21.10-51.80L21.10-51.80Q20.50-61 20.50-65.60L20.50-65.60Q20.50-66.20 21-66.65Q21.50-67.10 22.20-67.10L22.20-67.10L23.10-66.80Q23.80-66.70 24-66.50L24-66.50Q24-58.70 24.60-43.20L24.60-43.20Q25.20-27.60 25.20-19.80L25.20-19.80Q25.20-8 25.90 0L25.90 0L25.20 1.10ZM18.90-35.90L18.90-36.10L19.10-35.90L18.90-35.90ZM41.80 1.30Q40 1.30 39.80-0.80L39.80-0.80L39.80-2.10Q39.90-2.60 39.90-3.30L39.90-3.30L39.50-3.70Q40.30-5.80 40.30-7.80L40.30-7.80Q40.30-10.10 40-14.40L40-14.40L39.80-21Q39.80-26 40.10-36L40.10-36Q40.50-44.90 40.50-51.10L40.50-51.10L40.30-57.10Q40.10-59.80 40.10-63.10L40.10-63.10Q40.10-64.60 40.80-65.25Q41.50-65.90 43-65.90L43-65.90Q44-65.90 44.60-65.30L44.60-65.30Q44.80-65.20 47.50-64.90L47.50-64.90Q50-64.60 51.80-64L51.80-64Q53.70-63.40 53.70-62.50L53.70-62.50Q53.70-61.50 51.80-60.50L51.80-60.50Q46.10-62.40 43.70-62.40L43.70-62.40L43.20-61.80Q43.30-60.90 43.30-57.50L43.30-57.50Q43.30-53.20 43.10-49.80L43.10-49.80Q43-46.30 43-42L43-42Q43-39.20 44.40-39.20L44.40-39.20L46-39.30Q46.80-39.40 47.70-39.40L47.70-39.40Q51.60-39.40 51.60-37.60L51.60-37.60Q51.60-36.50 51.10-35.75Q50.60-35 49.60-35L49.60-35Q48.10-35 47.30-35.80L47.30-35.80L44.10-36.30L43.60-36.30L43.10-35.80L43.10-35.50Q43.30-33.80 43.30-27.60L43.30-27.60Q43.30-23.70 43.20-20.50L43.20-20.50L43.10-13.40Q43.10-9.50 43.40-5.40L43.40-5.40Q43.50-3.10 44.40-2.35Q45.30-1.60 47.70-1.60L47.70-1.60L49.50-1.70Q50.40-1.80 51.50-1.80L51.50-1.80Q54.40-1.80 54.40-0.50L54.40-0.50Q54.40 1.30 50 1.30L50 1.30L41.80 1.30ZM72.10 1.50Q71.80 1.50 71.30 1.10Q70.80 0.70 70.70 0.40L70.70 0.40Q71.60-2 71.60-17.10L71.60-17.10Q71.60-20 71.30-25.40L71.30-25.40L70.80-32.50L70.20-33.80L70.50-35Q69.90-36.40 68.70-39.70Q67.50-43 66.30-46.40L66.30-46.40Q62.70-55.90 61.60-60.10L61.60-60.10Q61.00-62.10 60.70-63.80L60.70-63.80L62.10-64.90Q63.10-64.70 65-58.50L65-58.50Q66.50-54.10 67.70-49.80L67.70-49.80L68.90-46Q70.70-39.80 71.50-39.60L71.50-39.60L71.90-41.40L71.70-41.90Q72.50-42.90 73.70-49L73.70-49Q75-56 76.20-60.80L76.20-60.80Q77.50-66.40 78.80-66.40L78.80-66.40Q79.30-66.40 79.70-66.10Q80.10-65.80 80.10-65.40L80.10-65.40Q80.10-63.90 77.10-53.60L77.10-53.60Q75.60-48.70 74.60-44.40L74.60-44.40Q73.40-39.30 73.40-35.30L73.40-35.30Q73.90-34.30 73.90-33.60L73.90-33.60Q73.90-33.10 73.60-32.20L73.60-32.20Q73.30-31.30 73.30-30.70L73.30-30.70Q73.30-30.20 73.70-26.20L73.70-26.20Q74.10-23.50 74.10-21.60L74.10-21.60Q74.10-17.20 74.20-13.70L74.20-13.70L74.20-5.70L74.20-5.30Q74.20 1.50 72.10 1.50L72.10 1.50ZM105.20 1.60Q102.40 1.60 99.30-0.60Q96.20-2.80 94.90-5.60L94.90-5.60Q93.70-8.20 92.45-22.10Q91.20-36 91.20-42.80L91.20-42.80L91.20-48.10Q91.10-50.40 91.10-53.20L91.10-53.20Q91.10-58.40 91.70-63.50L91.70-63.50Q92.10-66 92.75-67.80Q93.40-69.60 94.60-71.30L94.60-71.30Q96.80-74.70 101.20-75.80L101.20-75.80Q103.50-76.40 106.30-76.40L106.30-76.40Q108.20-76.40 110.15-75.30Q112.10-74.20 112.10-72.70L112.10-72.70Q112.10-71.60 110.50-71.60L110.50-71.60Q109.90-71.60 108.20-72.30L108.20-72.30Q106.70-73 105.50-73L105.50-73Q102.70-73 100.45-71.85Q98.20-70.70 96.90-68.80L96.90-68.80Q95.80-67.20 95-64.40Q94.20-61.60 94-58.80L94-58.80Q93.70-56.30 93.70-52.80L93.70-52.80L93.80-47.20Q93.90-44.80 93.90-42L93.90-42Q93.90-35.10 95.30-21.70Q96.70-8.30 98-6.20L98-6.20Q99.20-4.30 101.55-3.30Q103.90-2.30 106.50-2.30L106.50-2.30Q111.10-2.30 113.50-5.20L113.50-5.20Q114.40-6.40 115.40-6.40L115.40-6.40Q116.30-6.40 116.30-5L116.30-5Q116.30-3.20 115.20-1.85Q114.10-0.50 112.20 0.20L112.20 0.20Q109 1.60 105.20 1.60L105.20 1.60ZM143.20 1.10Q143.20 0.10 140.20 0.10L140.20 0.10Q139.70-18.40 139.70-26.70L139.70-26.70L139.40-27.10L139.80-28Q139.80-29.80 139.40-31.70L139.40-31.70L137.90-32.10Q137-31.80 135.90-31.80L135.90-31.80Q135.10-31.80 132.60-32.30L132.60-32.30Q130.90-32.80 129.50-32.80L129.50-32.80L128.40-32.40Q128.40-28.90 128.30-26.10L128.30-26.10Q128.20-23.30 128.20-19.80L128.20-19.80L128.40-19.40Q128.40-16.60 128.70-11L128.70-11Q129-5.50 129-2.70L129-2.70Q129-1.60 128.60-0.85Q128.20-0.10 127.40-0.10L127.40-0.10Q125.20-0.10 125.20-6.10L125.20-6.10Q125.20-11.20 125.30-15.30L125.30-15.30L125.40-24.40Q125.40-33.50 125.10-34.20L125.10-34.20Q125.60-35.20 125.60-40.80L125.60-40.80Q125.60-45.60 125.20-52.50L125.20-52.50L125-56.40L124.80-64.20Q124.80-64.90 125.30-65.50Q125.80-66.10 126.50-66.10L126.50-66.10Q128.50-66.10 128.50-60.30L128.50-60.30Q128.50-53.50 128.40-48L128.40-48Q128.20-42.50 128.20-35.90L128.20-35.90Q128.20-34.70 135.80-34.70L135.80-34.70L136.20-34.70Q138.10-34.70 138.95-35.45Q139.80-36.20 139.80-38L139.80-38Q139.80-43.30 139.10-51.80L139.10-51.80Q138.50-61 138.50-65.60L138.50-65.60Q138.50-66.20 139-66.65Q139.50-67.10 140.20-67.10L140.20-67.10L141.10-66.80Q141.80-66.70 142-66.50L142-66.50Q142-58.70 142.60-43.20L142.60-43.20Q143.20-27.60 143.20-19.80L143.20-19.80Q143.20-8 143.90 0L143.90 0L143.20 1.10ZM136.90-35.90L136.90-36.10L137.10-35.90L136.90-35.90ZM177.60 0.90Q176.10 0.90 175.70 0.55Q175.30 0.20 175.10-1.30L175.10-1.30Q174.20-8.60 174-10.40L174-10.40L173.50-14.40Q171.30-14.90 168.50-14.90L168.50-14.90L164.90-15.10Q162.50-15.40 161.40-15.40L161.40-15.40Q160.80-15.40 160.70-14.90L160.70-14.90Q160.70-14.60 160.60-14.60L160.60-14.60L160.40-12.60Q160.30-10.80 159.30-5.40L159.30-5.40Q158.80-2.70 158.10-1.20L158.10-1.20Q157.30 0.50 156.60 0.50L156.60 0.50Q156 0.50 155.30-0.05Q154.60-0.60 154.60-1.20L154.60-1.20L154.70-1.50L154.80-1.80Q156.60-8.90 157.80-15.90L157.80-15.90L159-22.10L160.20-29.70Q160.20-29.70 161.30-36.30L161.30-36.30Q161.80-39 163.10-45L163.10-45Q164.50-51.80 164.80-54.30L164.80-54.30Q164.90-54.60 165.20-58L165.20-58Q165.60-61.80 165.90-63.60L165.90-63.60Q166.20-66.20 166.50-66.60L166.50-66.60L167.20-66.60Q167.50-66.50 167.90-66.50L167.90-66.50Q169.10-66.50 169.70-67.10L169.70-67.10Q170.40-67.10 170.95-66.65Q171.50-66.20 171.50-65.60L171.50-65.60Q171.50-60.80 172.20-54.60L172.20-54.60Q172.60-51.40 172.80-49.30L172.80-49.30Q173.90-36.40 178.40-0.90L178.40-0.90L178.40-0.60Q178.40 0.40 177.60 0.90L177.60 0.90ZM172-17.10L173-17.10Q172-31.50 169.20-59.60L169.20-59.60L163.80-32.90Q161.50-21.40 161.50-18.40L161.50-18.40Q161.50-17.90 165.30-17.50Q169.10-17.10 172-17.10L172-17.10ZM196.90-0.60L195.80-1.40L195.70-5.10Q195.60-6.70 195.60-8.70L195.60-8.70Q195.60-9.70 195.70-10.40L195.70-10.40L195.80-12.20Q195.80-13.20 195.40-14.60L195.40-14.60Q195.40-21.30 194.40-39.50L194.40-39.50Q193.40-57.10 193.30-63.40L193.30-63.40Q187.10-63.40 185-63.70L185-63.70Q183-64.20 183-65.30L183-65.30Q183.50-66.40 184.90-66.40L184.90-66.40Q187.90-66.40 193.60-66L193.60-66Q198.80-65.50 202.30-65.50L202.30-65.50L204.40-65.50L206.50-65.60Q208.30-65.60 208.30-64.30L208.30-64.30Q208.30-63.70 207.65-63.35Q207-63 206.10-63L206.10-63Q204.10-63 201.90-63.20L201.90-63.20L197.60-63.40Q197.20-63.40 197.20-63.10L197.20-63.10Q197.10-62.80 197.10-61.20L197.10-61.20Q197.10-51.50 198.30-31.80L198.30-31.80Q199.40-11.40 199.40-2.50L199.40-2.50Q199.40-1.80 198.55-1.20Q197.70-0.60 196.90-0.60L196.90-0.60Z" fill="#000000" fontsize="100" transform="matrix(1,0,0,1,161.45,348.4)"></path></svg>
